<svg width="87" height="86" viewBox="0 0 87 86" fill="none" xmlns="http://www.w3.org/2000/svg">
<path d="M43.3609 69.4963C45.5752 69.4963 47.3703 67.7012 47.3703 65.4869C47.3703 63.2726 45.5752 61.4775 43.3609 61.4775C41.1466 61.4775 39.3516 63.2726 39.3516 65.4869C39.3516 67.7012 41.1466 69.4963 43.3609 69.4963Z" fill="#D91921"/>
<path fill-rule="evenodd" clip-rule="evenodd" d="M43.361 0C19.7413 0 0.59375 19.1476 0.59375 42.7673C0.59375 66.387 19.7413 85.5346 43.361 85.5346C66.9808 85.5346 86.1283 66.387 86.1283 42.7673C86.1283 19.1476 66.9808 0 43.361 0ZM43.361 82.8616C21.253 82.8616 3.26671 64.8755 3.26671 42.7673C3.26671 20.6593 21.253 2.67296 43.361 2.67296C65.4692 2.67296 83.4554 20.6593 83.4554 42.7673C83.4554 64.8755 65.4692 82.8616 43.361 82.8616Z" fill="#D91921"/>
<path fill-rule="evenodd" clip-rule="evenodd" d="M42.1855 56.1324H44.5408C45.2589 56.1324 45.8487 55.565 45.8764 54.8474L47.3191 17.426C47.3484 16.6684 46.7419 16.0381 45.9835 16.0381H40.7428C39.9845 16.0381 39.378 16.6684 39.4073 17.426L40.85 54.8474C40.8777 55.565 41.4674 56.1324 42.1855 56.1324Z" fill="#D91921"/>
</svg>
