<svg width="24" height="17" viewBox="0 0 24 17" fill="none" xmlns="http://www.w3.org/2000/svg">
<path d="M1 10.6852H6.39756C6.94581 10.6852 7.4716 10.4674 7.85928 10.0797L8.41934 9.51965C8.80701 9.13198 9.33281 8.91418 9.88106 8.91418H14.2548C14.8508 8.91418 15.334 9.39736 15.334 9.99338V9.99338C15.334 10.5894 15.8171 11.0726 16.4132 11.0726H21.5021C22.0079 11.0726 22.4179 11.4826 22.4179 11.9884V11.9884C22.4179 12.3965 22.1479 12.7554 21.7557 12.8684L12.9026 15.4192C12.7165 15.4729 12.5239 15.5001 12.3303 15.5001H11.1915C10.9661 15.5001 10.7422 15.4632 10.5288 15.3909L7.5762 14.3916C7.36271 14.3194 7.13885 14.2825 6.91347 14.2825H1" stroke="white" stroke-width="1.7" stroke-linecap="round"/>
<path d="M16.1646 11.0725H9.68945" stroke="white" stroke-width="1.7" stroke-linecap="round"/>
<path d="M3.37988 10.6298V2.29199C3.37988 1.57844 3.95833 1 4.67187 1H18.857C19.5705 1 20.149 1.57844 20.149 2.29199V10.9065" stroke="white" stroke-width="1.7" stroke-linecap="round"/>
<path d="M5.59375 1.1106V3.91402C5.59375 4.62757 6.17219 5.20601 6.88574 5.20601H7.17962C7.89317 5.20601 8.47161 4.62757 8.47161 3.91402V1.1106" stroke="white" stroke-width="1.7" stroke-linecap="round"/>
<path d="M14.2266 8.69264V1.27661" stroke="white" stroke-width="1.7" stroke-linecap="round"/>
</svg>
