<svg width="19" height="21" viewBox="0 0 19 21" fill="none" xmlns="http://www.w3.org/2000/svg">
<path d="M9.44508 2.77803C7.33811 2.77803 5.63008 4.4695 5.63008 6.55603C5.63008 8.64255 7.33811 10.334 9.44508 10.334C11.552 10.334 13.2601 8.64255 13.2601 6.55603C13.2601 4.4695 11.552 2.77803 9.44508 2.77803ZM3.72258 6.55603C3.72258 3.42624 6.28463 0.889038 9.44508 0.889038C12.6055 0.889038 15.1676 3.42624 15.1676 6.55603C15.1676 9.68582 12.6055 12.223 9.44508 12.223C6.28463 12.223 3.72258 9.68582 3.72258 6.55603ZM5.63008 16.001C4.04985 16.001 2.76883 17.2696 2.76883 18.8345C2.76883 19.3561 2.34182 19.779 1.81508 19.779C1.28834 19.779 0.861328 19.3561 0.861328 18.8345C0.861328 16.2263 2.99637 14.112 5.63008 14.112H13.2601C15.8938 14.112 18.0288 16.2263 18.0288 18.8345C18.0288 19.3561 17.6018 19.779 17.0751 19.779C16.5483 19.779 16.1213 19.3561 16.1213 18.8345C16.1213 17.2696 14.8403 16.001 13.2601 16.001H5.63008Z" fill="white" stroke="white" stroke-width="0.561798" stroke-miterlimit="10" stroke-linecap="round" stroke-linejoin="round"/>
</svg>
