<svg width="16" height="14" viewBox="0 0 16 14" fill="none" xmlns="http://www.w3.org/2000/svg">
<path d="M6 12.5C6 13.3284 5.32843 14 4.5 14C3.67157 14 3 13.3284 3 12.5C3 11.6716 3.67157 11 4.5 11C5.32843 11 6 11.6716 6 12.5Z" fill="white"/>
<path d="M13 12.5C13 13.3284 12.3284 14 11.5 14C10.6716 14 10 13.3284 10 12.5C10 11.6716 10.6716 11 11.5 11C12.3284 11 13 11.6716 13 12.5Z" fill="white"/>
<path d="M1 0C0.447715 0 0 0.447715 0 1V11C0 11.5523 0.447715 12 1 12H2.05001C2.28164 10.8589 3.29052 10 4.5 10C5.70948 10 6.71836 10.8589 6.94999 12H8C8.55228 12 9 11.5523 9 11V1C9 0.447715 8.55228 0 8 0H1Z" fill="white"/>
<path d="M12 3C11.4477 3 11 3.44772 11 4V10.05C11.1616 10.0172 11.3288 10 11.5 10C12.7095 10 13.7184 10.8589 13.95 12H15C15.5523 12 16 11.5523 16 11V6C16 5.73478 15.8946 5.48043 15.7071 5.29289L13.7071 3.29289C13.5196 3.10536 13.2652 3 13 3H12Z" fill="white"/>
</svg>
