<svg width="20" height="20" viewBox="0 0 20 20" fill="none" xmlns="http://www.w3.org/2000/svg">
<path d="M1.01409 9.44142C0.5753 9.88022 0.5753 10.5916 1.01409 11.0304C1.45288 11.4692 2.1643 11.4692 2.6031 11.0304L1.01409 9.44142ZM10.2356 1.80896L11.0301 1.01446C10.5913 0.575667 9.87985 0.575667 9.44106 1.01446L10.2356 1.80896ZM17.868 11.0304C18.3068 11.4692 19.0182 11.4692 19.457 11.0304C19.8958 10.5916 19.8958 9.88022 19.457 9.44142L17.868 11.0304ZM2.6031 11.0304L4.47575 9.15777L2.88675 7.56876L1.01409 9.44142L2.6031 11.0304ZM4.47575 9.15777L11.0301 2.60346L9.44106 1.01446L2.88675 7.56876L4.47575 9.15777ZM9.44106 2.60346L15.9954 9.15777L17.5844 7.56876L11.0301 1.01446L9.44106 2.60346ZM15.9954 9.15777L17.868 11.0304L19.457 9.44142L17.5844 7.56876L15.9954 9.15777ZM2.55766 8.36327V17.7266H4.80485V8.36327H2.55766ZM4.61758 19.7865H7.42657V17.5393H4.61758V19.7865ZM9.4865 17.7266V13.9812H7.23931V17.7266H9.4865ZM9.29923 14.1685H11.1719V11.9213H9.29923V14.1685ZM10.9846 13.9812V17.7266H13.2318V13.9812H10.9846ZM13.0445 19.7865H15.8535V17.5393H13.0445V19.7865ZM17.9135 17.7266V8.36327H15.6663V17.7266H17.9135ZM15.8535 19.7865C16.9912 19.7865 17.9135 18.8642 17.9135 17.7266H15.6663C15.6663 17.6231 15.7501 17.5393 15.8535 17.5393V19.7865ZM10.9846 17.7266C10.9846 18.8642 11.9069 19.7865 13.0445 19.7865V17.5393C13.148 17.5393 13.2318 17.6231 13.2318 17.7266H10.9846ZM11.1719 14.1685C11.0685 14.1685 10.9846 14.0847 10.9846 13.9812H13.2318C13.2318 12.8436 12.3096 11.9213 11.1719 11.9213V14.1685ZM9.4865 13.9812C9.4865 14.0847 9.40265 14.1685 9.29923 14.1685V11.9213C8.16156 11.9213 7.23931 12.8436 7.23931 13.9812H9.4865ZM7.42657 19.7865C8.56424 19.7865 9.4865 18.8642 9.4865 17.7266H7.23931C7.23931 17.6231 7.32315 17.5393 7.42657 17.5393V19.7865ZM2.55766 17.7266C2.55766 18.8642 3.47992 19.7865 4.61758 19.7865V17.5393C4.72101 17.5393 4.80485 17.6231 4.80485 17.7266H2.55766ZM7.42657 19.7865H13.0445V17.5393H7.42657V19.7865Z" fill="white"/>
</svg>
