<svg width="17" height="16" viewBox="0 0 17 16" fill="none" xmlns="http://www.w3.org/2000/svg">
<path d="M9.86603 11.1108L8.56152 9.7832V15.1886L14.5509 14.5057V12.1138C14.5509 12.1105 14.5509 12.1105 14.5509 12.1072L10.4929 11.5463C10.2256 11.51 9.9914 11.3483 9.86603 11.1108Z" fill="black"/>
<path d="M10.3941 10.611L16.6705 11.4734L15.2472 7.23592L8.47266 6.38672L10.3941 10.611Z" fill="black"/>
<path d="M8.22424 6.74316L1.19101 7.2354L0 11.3027L6.19457 10.4594L8.22424 6.74316Z" fill="black"/>
<path d="M5.94339 11.5463L1.88867 12.1072V14.5057L8.22313 15.1886V9.7832L6.56693 11.1075C6.44486 11.3483 6.21062 11.51 5.94339 11.5463Z" fill="black"/>
<path d="M10.4394 1L11.9174 2.47804M11.9174 2.47804L10.4394 3.95608M11.9174 2.47804H4.63281" stroke="black" stroke-width="1.47804" stroke-linecap="round" stroke-linejoin="round"/>
</svg>
