<svg width="22" height="19" viewBox="0 0 22 19" fill="none" xmlns="http://www.w3.org/2000/svg">
<path d="M12.5181 13.8272L10.8633 12.1431V19.0002L18.4612 18.1339V15.0995C18.4612 15.0954 18.4612 15.0954 18.4612 15.0912L13.3133 14.3797C12.9743 14.3336 12.6772 14.1286 12.5181 13.8272Z" fill="#9E00FF"/>
<path d="M13.1836 13.1918L21.1456 14.2859L19.3401 8.91028L10.7461 7.83301L13.1836 13.1918Z" fill="#9E00FF"/>
<path d="M10.433 8.28564L1.51088 8.91009L0 14.0697L7.85826 12.9999L10.433 8.28564Z" fill="#9E00FF"/>
<path d="M7.54213 14.3797L2.39844 15.0912V18.1339L10.4342 19.0002V12.1431L8.33315 13.823C8.17829 14.1286 7.88114 14.3336 7.54213 14.3797Z" fill="#9E00FF"/>
<path d="M13.2411 1L15.1161 2.875M15.1161 2.875L13.2411 4.75M15.1161 2.875H5.875" stroke="#9E00FF" stroke-width="1.875" stroke-linecap="round" stroke-linejoin="round"/>
</svg>
