<svg width="75" height="75" viewBox="0 0 75 75" fill="none" xmlns="http://www.w3.org/2000/svg">
<circle cx="37.5" cy="37.5" r="37.5" fill="#ED1C24"/>
<circle cx="37.4982" cy="37.5002" r="30.6818" fill="#ED1C24"/>
<path d="M37.0739 10.2271C31.5955 10.2271 26.2403 11.8516 21.6852 14.8952C17.1302 17.9387 13.5799 22.2647 11.4835 27.326C9.387 32.3873 8.83847 37.9566 9.90724 43.3297C10.976 48.7027 13.6141 53.6382 17.4878 57.512C21.3616 61.3857 26.297 64.0238 31.6701 65.0925C37.0431 66.1613 42.6125 65.6128 47.6738 63.5163C52.7351 61.4199 57.061 57.8696 60.1046 53.3146C63.1482 48.7595 64.7727 43.4042 64.7727 37.9259C64.7757 34.2876 64.0613 30.6844 62.6704 27.3225C61.2794 23.9605 59.2393 20.9059 56.6666 18.3332C54.0939 15.7605 51.0392 13.7203 47.6773 12.3294C44.3154 10.9385 40.7122 10.2241 37.0739 10.2271ZM37.0739 59.1074C32.8846 59.1074 28.7893 57.8651 25.3061 55.5377C21.8228 53.2102 19.1079 49.9021 17.5047 46.0317C15.9016 42.1613 15.4821 37.9024 16.2994 33.7936C17.1167 29.6848 19.134 25.9106 22.0963 22.9483C25.0586 19.9861 28.8328 17.9687 32.9416 17.1514C37.0504 16.3341 41.3093 16.7536 45.1797 18.3568C49.0501 19.96 52.3582 22.6748 54.6856 26.1581C57.0131 29.6414 58.2553 33.7366 58.2553 37.9259C58.2609 40.7091 57.7169 43.4659 56.6544 46.0383C55.5919 48.6107 54.0319 50.9479 52.0639 52.9159C50.0959 54.8839 47.7586 56.4439 45.1863 57.5064C42.6139 58.5689 39.857 59.113 37.0739 59.1074ZM45.2206 29.2904L35.7704 40.6958L29.253 35.9707C27.7866 34.8302 25.8314 35.156 24.6908 36.6224C23.5503 38.0888 23.8762 40.0441 25.3426 41.1846C27.2978 42.651 29.4159 44.1174 31.3712 45.5838C32.8376 46.5614 34.141 48.0279 35.9333 48.1908C36.4221 48.1908 37.0739 48.1908 37.5627 47.8649L38.5403 46.8873L45.8723 38.0889C47.1758 36.4595 48.4793 34.9931 49.7827 33.3638C50.7604 32.0603 51.0862 30.4309 49.9457 29.1275L49.4569 28.6387C48.3163 27.824 46.3611 27.9869 45.2206 29.2904Z" fill="white"/>
<circle cx="37.4982" cy="37.5002" r="23.1818" stroke="#ED1C24" stroke-width="15"/>
</svg>
