<svg width="15" height="15" viewBox="0 0 15 15" fill="none" xmlns="http://www.w3.org/2000/svg">
<path d="M6.74963 14.7962H4.4502V7.51465H10.582V14.7962H8.28258V12.4967H6.74963V14.7962Z" fill="black"/>
<path d="M2.91619 14.4133H1V4.70503C1 4.31491 1.2253 3.95988 1.57829 3.79377L7.40123 1.05357C7.47289 1.01984 7.55624 1.0218 7.62624 1.05886L13.4942 4.16543C13.8239 4.33998 14.0301 4.68247 14.0301 5.05551V14.4133H11.7307V6.36534H2.91619V14.4133Z" fill="black"/>
<path d="M1 14.4133H0.74822V14.6651H1V14.4133ZM2.91619 14.4133V14.6651H3.16797V14.4133H2.91619ZM2.91619 6.36534V6.11356H2.66441V6.36534H2.91619ZM11.7307 6.36534H11.9825V6.11356H11.7307V6.36534ZM11.7307 14.4133H11.4789V14.6651H11.7307V14.4133ZM14.0301 14.4133V14.6651H14.2819V14.4133H14.0301ZM13.4942 4.16543L13.3764 4.38795L13.4942 4.16543ZM7.62624 1.05886L7.50843 1.28138V1.28138L7.62624 1.05886ZM7.40123 1.05357L7.29402 0.825751L7.29402 0.825752L7.40123 1.05357ZM1.57829 3.79377L1.47108 3.56596L1.57829 3.79377ZM1 14.6651H2.91619V14.1616H1V14.6651ZM3.16797 14.4133V6.36534H2.66441V14.4133H3.16797ZM2.91619 6.61712H11.7307V6.11356H2.91619V6.61712ZM11.4789 6.36534V14.4133H11.9825V6.36534H11.4789ZM11.7307 14.6651H14.0301V14.1616H11.7307V14.6651ZM14.2819 14.4133V5.05551H13.7783V14.4133H14.2819ZM13.612 3.94291L7.74404 0.836342L7.50843 1.28138L13.3764 4.38795L13.612 3.94291ZM7.29402 0.825752L1.47108 3.56596L1.6855 4.02159L7.50843 1.28138L7.29402 0.825752ZM0.74822 4.70503V14.4133H1.25178V4.70503H0.74822ZM1.47108 3.56596C1.02985 3.7736 0.74822 4.21738 0.74822 4.70503H1.25178C1.25178 4.41244 1.42076 4.14617 1.6855 4.02159L1.47108 3.56596ZM7.74404 0.836342C7.60405 0.762228 7.43734 0.758305 7.29402 0.825751L7.50843 1.28138L7.50843 1.28138L7.74404 0.836342ZM14.2819 5.05551C14.2819 4.5892 14.0241 4.16109 13.612 3.94291L13.3764 4.38795C13.6237 4.51886 13.7783 4.77573 13.7783 5.05551H14.2819Z" fill="black"/>
</svg>
